<?xml version="1.0" encoding="UTF-8" standalone="no"?>
<!DOCTYPE svg PUBLIC "-//W3C//DTD SVG 1.1//EN"
 "http://www.w3.org/Graphics/SVG/1.1/DTD/svg11.dtd">
<!-- Generated by graphviz version 2.43.0 (0)
 -->
<!-- Title: %3 Pages: 1 -->
<svg width="2381pt" height="764pt"
 viewBox="0.00 0.00 2381.17 764.00" xmlns="http://www.w3.org/2000/svg" xmlns:xlink="http://www.w3.org/1999/xlink">
<g id="graph0" class="graph" transform="scale(1 1) rotate(0) translate(4 760)">
<title>%3</title>
<polygon fill="white" stroke="transparent" points="-4,4 -4,-760 2377.17,-760 2377.17,4 -4,4"/>
<!-- [root] aws_instance.jenkins&#45;master -->
<g id="node1" class="node">
<title>[root] aws_instance.jenkins&#45;master</title>
<polygon fill="none" stroke="black" points="1645.5,-468 1424.5,-468 1424.5,-432 1645.5,-432 1645.5,-468"/>
<text text-anchor="middle" x="1535" y="-446.3" font-family="Times,serif" font-size="14.00">aws_instance.jenkins&#45;master</text>
</g>
<!-- [root] aws_key_pair.master&#45;key -->
<g id="node5" class="node">
<title>[root] aws_key_pair.master&#45;key</title>
<polygon fill="none" stroke="black" points="2369,-252 2175,-252 2175,-216 2369,-216 2369,-252"/>
<text text-anchor="middle" x="2272" y="-230.3" font-family="Times,serif" font-size="14.00">aws_key_pair.master&#45;key</text>
</g>
<!-- [root] aws_instance.jenkins&#45;master&#45;&gt;[root] aws_key_pair.master&#45;key -->
<g id="edge1" class="edge">
<title>[root] aws_instance.jenkins&#45;master&#45;&gt;[root] aws_key_pair.master&#45;key</title>
<path fill="none" stroke="black" d="M1645.78,-445.19C1850.95,-437.6 2271.28,-419.29 2293,-396 2326.91,-359.63 2304.11,-296.93 2286.66,-261.46"/>
<polygon fill="black" stroke="black" points="2289.6,-259.53 2281.93,-252.22 2283.37,-262.72 2289.6,-259.53"/>
</g>
<!-- [root] aws_main_route_table_association.set&#45;master&#45;default&#45;rt&#45;assoc -->
<g id="node7" class="node">
<title>[root] aws_main_route_table_association.set&#45;master&#45;default&#45;rt&#45;assoc</title>
<polygon fill="none" stroke="black" points="1640.5,-396 1183.5,-396 1183.5,-360 1640.5,-360 1640.5,-396"/>
<text text-anchor="middle" x="1412" y="-374.3" font-family="Times,serif" font-size="14.00">aws_main_route_table_association.set&#45;master&#45;default&#45;rt&#45;assoc</text>
</g>
<!-- [root] aws_instance.jenkins&#45;master&#45;&gt;[root] aws_main_route_table_association.set&#45;master&#45;default&#45;rt&#45;assoc -->
<g id="edge2" class="edge">
<title>[root] aws_instance.jenkins&#45;master&#45;&gt;[root] aws_main_route_table_association.set&#45;master&#45;default&#45;rt&#45;assoc</title>
<path fill="none" stroke="black" d="M1504.91,-431.88C1488.68,-422.64 1468.46,-411.13 1451.03,-401.21"/>
<polygon fill="black" stroke="black" points="1452.63,-398.09 1442.2,-396.19 1449.16,-404.18 1452.63,-398.09"/>
</g>
<!-- [root] aws_security_group.jenkins&#45;sg -->
<g id="node11" class="node">
<title>[root] aws_security_group.jenkins&#45;sg</title>
<polygon fill="none" stroke="black" points="1165,-396 931,-396 931,-360 1165,-360 1165,-396"/>
<text text-anchor="middle" x="1048" y="-374.3" font-family="Times,serif" font-size="14.00">aws_security_group.jenkins&#45;sg</text>
</g>
<!-- [root] aws_instance.jenkins&#45;master&#45;&gt;[root] aws_security_group.jenkins&#45;sg -->
<g id="edge3" class="edge">
<title>[root] aws_instance.jenkins&#45;master&#45;&gt;[root] aws_security_group.jenkins&#45;sg</title>
<path fill="none" stroke="black" d="M1424.49,-433.12C1350.5,-422.48 1252.87,-408.45 1175.57,-397.34"/>
<polygon fill="black" stroke="black" points="1175.69,-393.82 1165.29,-395.86 1174.69,-400.75 1175.69,-393.82"/>
</g>
<!-- [root] aws_subnet.subnet_1 -->
<g id="node14" class="node">
<title>[root] aws_subnet.subnet_1</title>
<polygon fill="none" stroke="black" points="1827.5,-396 1658.5,-396 1658.5,-360 1827.5,-360 1827.5,-396"/>
<text text-anchor="middle" x="1743" y="-374.3" font-family="Times,serif" font-size="14.00">aws_subnet.subnet_1</text>
</g>
<!-- [root] aws_instance.jenkins&#45;master&#45;&gt;[root] aws_subnet.subnet_1 -->
<g id="edge4" class="edge">
<title>[root] aws_instance.jenkins&#45;master&#45;&gt;[root] aws_subnet.subnet_1</title>
<path fill="none" stroke="black" d="M1585.62,-431.97C1614.81,-422.14 1651.69,-409.73 1682.42,-399.39"/>
<polygon fill="black" stroke="black" points="1683.8,-402.62 1692.16,-396.11 1681.56,-395.98 1683.8,-402.62"/>
</g>
<!-- [root] data.aws_ssm_parameter.linuxAmi -->
<g id="node22" class="node">
<title>[root] data.aws_ssm_parameter.linuxAmi</title>
<polygon fill="none" stroke="black" points="1328.5,-180 1065.5,-180 1065.5,-144 1328.5,-144 1328.5,-180"/>
<text text-anchor="middle" x="1197" y="-158.3" font-family="Times,serif" font-size="14.00">data.aws_ssm_parameter.linuxAmi</text>
</g>
<!-- [root] aws_instance.jenkins&#45;master&#45;&gt;[root] data.aws_ssm_parameter.linuxAmi -->
<g id="edge5" class="edge">
<title>[root] aws_instance.jenkins&#45;master&#45;&gt;[root] data.aws_ssm_parameter.linuxAmi</title>
<path fill="none" stroke="black" d="M1424.35,-447.37C1256.95,-443.73 955.19,-432.19 922,-396 890.57,-361.74 955.29,-295.76 964,-288 993.71,-261.51 1010.57,-270.14 1046,-252 1086.68,-231.18 1131.59,-204.16 1161.78,-185.38"/>
<polygon fill="black" stroke="black" points="1163.64,-188.34 1170.27,-180.07 1159.93,-182.4 1163.64,-188.34"/>
</g>
<!-- [root] var.instance_type -->
<g id="node29" class="node">
<title>[root] var.instance_type</title>
<polygon fill="none" stroke="black" points="1980.5,-396 1845.5,-396 1845.5,-360 1986.5,-360 1986.5,-390 1980.5,-396"/>
<polyline fill="none" stroke="black" points="1980.5,-396 1980.5,-390 "/>
<polyline fill="none" stroke="black" points="1986.5,-390 1980.5,-390 "/>
<text text-anchor="middle" x="1916" y="-374.3" font-family="Times,serif" font-size="14.00">var.instance_type</text>
</g>
<!-- [root] aws_instance.jenkins&#45;master&#45;&gt;[root] var.instance_type -->
<g id="edge7" class="edge">
<title>[root] aws_instance.jenkins&#45;master&#45;&gt;[root] var.instance_type</title>
<path fill="none" stroke="black" d="M1637.92,-431.94C1693.77,-422.44 1764.25,-410.08 1835.36,-396.29"/>
<polygon fill="black" stroke="black" points="1836.25,-399.68 1845.39,-394.33 1834.91,-392.81 1836.25,-399.68"/>
</g>
<!-- [root] provisioner.local&#45;exec -->
<g id="node34" class="node">
<title>[root] provisioner.local&#45;exec</title>
<ellipse fill="none" stroke="black" cx="2144" cy="-378" rx="139.98" ry="18"/>
<text text-anchor="middle" x="2144" y="-374.3" font-family="Times,serif" font-size="14.00">[root] provisioner.local&#45;exec</text>
</g>
<!-- [root] aws_instance.jenkins&#45;master&#45;&gt;[root] provisioner.local&#45;exec -->
<g id="edge6" class="edge">
<title>[root] aws_instance.jenkins&#45;master&#45;&gt;[root] provisioner.local&#45;exec</title>
<path fill="none" stroke="black" d="M1645.64,-436.28C1755.54,-423.65 1923.13,-404.39 2033.12,-391.74"/>
<polygon fill="black" stroke="black" points="2033.71,-395.2 2043.25,-390.58 2032.91,-388.25 2033.71,-395.2"/>
</g>
<!-- [root] aws_instance.jenkins&#45;worker&#45;oregon -->
<g id="node2" class="node">
<title>[root] aws_instance.jenkins&#45;worker&#45;oregon</title>
<polygon fill="none" stroke="black" points="629.5,-540 354.5,-540 354.5,-504 629.5,-504 629.5,-540"/>
<text text-anchor="middle" x="492" y="-518.3" font-family="Times,serif" font-size="14.00">aws_instance.jenkins&#45;worker&#45;oregon</text>
</g>
<!-- [root] aws_instance.jenkins&#45;worker&#45;oregon&#45;&gt;[root] aws_instance.jenkins&#45;master -->
<g id="edge8" class="edge">
<title>[root] aws_instance.jenkins&#45;worker&#45;oregon&#45;&gt;[root] aws_instance.jenkins&#45;master</title>
<path fill="none" stroke="black" d="M629.7,-511.76C835.31,-497.96 1219.23,-472.19 1414.41,-459.09"/>
<polygon fill="black" stroke="black" points="1414.67,-462.58 1424.41,-458.42 1414.2,-455.6 1414.67,-462.58"/>
</g>
<!-- [root] aws_key_pair.worker&#45;key -->
<g id="node6" class="node">
<title>[root] aws_key_pair.worker&#45;key</title>
<polygon fill="none" stroke="black" points="194,-180 0,-180 0,-144 194,-144 194,-180"/>
<text text-anchor="middle" x="97" y="-158.3" font-family="Times,serif" font-size="14.00">aws_key_pair.worker&#45;key</text>
</g>
<!-- [root] aws_instance.jenkins&#45;worker&#45;oregon&#45;&gt;[root] aws_key_pair.worker&#45;key -->
<g id="edge9" class="edge">
<title>[root] aws_instance.jenkins&#45;worker&#45;oregon&#45;&gt;[root] aws_key_pair.worker&#45;key</title>
<path fill="none" stroke="black" d="M354.16,-508.71C271.07,-499.72 174.16,-485.97 136,-468 82.47,-442.8 37,-438.17 37,-379 37,-379 37,-379 37,-305 37,-264.55 38.98,-252.69 56,-216 60.55,-206.19 67.21,-196.51 73.84,-188.16"/>
<polygon fill="black" stroke="black" points="76.67,-190.23 80.38,-180.3 71.29,-185.75 76.67,-190.23"/>
</g>
<!-- [root] aws_main_route_table_association.set&#45;worker&#45;default&#45;rt&#45;assoc -->
<g id="node8" class="node">
<title>[root] aws_main_route_table_association.set&#45;worker&#45;default&#45;rt&#45;assoc</title>
<polygon fill="none" stroke="black" points="636.5,-468 179.5,-468 179.5,-432 636.5,-432 636.5,-468"/>
<text text-anchor="middle" x="408" y="-446.3" font-family="Times,serif" font-size="14.00">aws_main_route_table_association.set&#45;worker&#45;default&#45;rt&#45;assoc</text>
</g>
<!-- [root] aws_instance.jenkins&#45;worker&#45;oregon&#45;&gt;[root] aws_main_route_table_association.set&#45;worker&#45;default&#45;rt&#45;assoc -->
<g id="edge10" class="edge">
<title>[root] aws_instance.jenkins&#45;worker&#45;oregon&#45;&gt;[root] aws_main_route_table_association.set&#45;worker&#45;default&#45;rt&#45;assoc</title>
<path fill="none" stroke="black" d="M471.24,-503.7C460.76,-494.97 447.89,-484.24 436.5,-474.75"/>
<polygon fill="black" stroke="black" points="438.45,-471.82 428.53,-468.1 433.97,-477.19 438.45,-471.82"/>
</g>
<!-- [root] aws_security_group.jenkins&#45;sg&#45;oregon -->
<g id="node12" class="node">
<title>[root] aws_security_group.jenkins&#45;sg&#45;oregon</title>
<polygon fill="none" stroke="black" points="463,-396 175,-396 175,-360 463,-360 463,-396"/>
<text text-anchor="middle" x="319" y="-374.3" font-family="Times,serif" font-size="14.00">aws_security_group.jenkins&#45;sg&#45;oregon</text>
</g>
<!-- [root] aws_instance.jenkins&#45;worker&#45;oregon&#45;&gt;[root] aws_security_group.jenkins&#45;sg&#45;oregon -->
<g id="edge11" class="edge">
<title>[root] aws_instance.jenkins&#45;worker&#45;oregon&#45;&gt;[root] aws_security_group.jenkins&#45;sg&#45;oregon</title>
<path fill="none" stroke="black" d="M354.27,-515.7C278.09,-509.56 194.06,-496.34 170,-468 143.64,-436.95 186.67,-413.87 233.15,-399.01"/>
<polygon fill="black" stroke="black" points="234.26,-402.33 242.79,-396.05 232.2,-395.64 234.26,-402.33"/>
</g>
<!-- [root] aws_subnet.subnet_1_oregon -->
<g id="node15" class="node">
<title>[root] aws_subnet.subnet_1_oregon</title>
<polygon fill="none" stroke="black" points="290.5,-252 65.5,-252 65.5,-216 290.5,-216 290.5,-252"/>
<text text-anchor="middle" x="178" y="-230.3" font-family="Times,serif" font-size="14.00">aws_subnet.subnet_1_oregon</text>
</g>
<!-- [root] aws_instance.jenkins&#45;worker&#45;oregon&#45;&gt;[root] aws_subnet.subnet_1_oregon -->
<g id="edge12" class="edge">
<title>[root] aws_instance.jenkins&#45;worker&#45;oregon&#45;&gt;[root] aws_subnet.subnet_1_oregon</title>
<path fill="none" stroke="black" d="M354.1,-516.66C274.17,-510.91 184.41,-497.78 159,-468 108.82,-409.2 143.82,-308.93 165.03,-261.44"/>
<polygon fill="black" stroke="black" points="168.31,-262.69 169.31,-252.14 161.95,-259.76 168.31,-262.69"/>
</g>
<!-- [root] data.aws_ssm_parameter.linuxAmiOregon -->
<g id="node23" class="node">
<title>[root] data.aws_ssm_parameter.linuxAmiOregon</title>
<polygon fill="none" stroke="black" points="823,-180 507,-180 507,-144 823,-144 823,-180"/>
<text text-anchor="middle" x="665" y="-158.3" font-family="Times,serif" font-size="14.00">data.aws_ssm_parameter.linuxAmiOregon</text>
</g>
<!-- [root] aws_instance.jenkins&#45;worker&#45;oregon&#45;&gt;[root] data.aws_ssm_parameter.linuxAmiOregon -->
<g id="edge13" class="edge">
<title>[root] aws_instance.jenkins&#45;worker&#45;oregon&#45;&gt;[root] data.aws_ssm_parameter.linuxAmiOregon</title>
<path fill="none" stroke="black" d="M588.67,-503.92C609.71,-496.09 630.11,-484.67 645,-468 672.01,-437.77 665,-419.54 665,-379 665,-379 665,-379 665,-305 665,-265 665,-218.65 665,-190.08"/>
<polygon fill="black" stroke="black" points="668.5,-190.05 665,-180.05 661.5,-190.05 668.5,-190.05"/>
</g>
<!-- [root] var.workers&#45;count -->
<g id="node33" class="node">
<title>[root] var.workers&#45;count</title>
<polygon fill="none" stroke="black" points="832.5,-468 693.5,-468 693.5,-432 838.5,-432 838.5,-462 832.5,-468"/>
<polyline fill="none" stroke="black" points="832.5,-468 832.5,-462 "/>
<polyline fill="none" stroke="black" points="838.5,-462 832.5,-462 "/>
<text text-anchor="middle" x="766" y="-446.3" font-family="Times,serif" font-size="14.00">var.workers&#45;count</text>
</g>
<!-- [root] aws_instance.jenkins&#45;worker&#45;oregon&#45;&gt;[root] var.workers&#45;count -->
<g id="edge14" class="edge">
<title>[root] aws_instance.jenkins&#45;worker&#45;oregon&#45;&gt;[root] var.workers&#45;count</title>
<path fill="none" stroke="black" d="M558.68,-503.97C598.13,-493.89 648.25,-481.08 689.33,-470.59"/>
<polygon fill="black" stroke="black" points="690.2,-473.98 699.02,-468.11 688.47,-467.2 690.2,-473.98"/>
</g>
<!-- [root] aws_internet_gateway.igw -->
<g id="node3" class="node">
<title>[root] aws_internet_gateway.igw</title>
<polygon fill="none" stroke="black" points="1480.5,-252 1277.5,-252 1277.5,-216 1480.5,-216 1480.5,-252"/>
<text text-anchor="middle" x="1379" y="-230.3" font-family="Times,serif" font-size="14.00">aws_internet_gateway.igw</text>
</g>
<!-- [root] aws_vpc.vpc_master -->
<g id="node17" class="node">
<title>[root] aws_vpc.vpc_master</title>
<polygon fill="none" stroke="black" points="1642,-180 1480,-180 1480,-144 1642,-144 1642,-180"/>
<text text-anchor="middle" x="1561" y="-158.3" font-family="Times,serif" font-size="14.00">aws_vpc.vpc_master</text>
</g>
<!-- [root] aws_internet_gateway.igw&#45;&gt;[root] aws_vpc.vpc_master -->
<g id="edge15" class="edge">
<title>[root] aws_internet_gateway.igw&#45;&gt;[root] aws_vpc.vpc_master</title>
<path fill="none" stroke="black" d="M1423.52,-215.88C1448.73,-206.18 1480.45,-193.98 1507.07,-183.74"/>
<polygon fill="black" stroke="black" points="1508.55,-186.92 1516.62,-180.07 1506.03,-180.39 1508.55,-186.92"/>
</g>
<!-- [root] aws_internet_gateway.igw&#45;oregon -->
<g id="node4" class="node">
<title>[root] aws_internet_gateway.igw&#45;oregon</title>
<polygon fill="none" stroke="black" points="612.5,-252 355.5,-252 355.5,-216 612.5,-216 612.5,-252"/>
<text text-anchor="middle" x="484" y="-230.3" font-family="Times,serif" font-size="14.00">aws_internet_gateway.igw&#45;oregon</text>
</g>
<!-- [root] aws_vpc.vpc_master_oregon -->
<g id="node18" class="node">
<title>[root] aws_vpc.vpc_master_oregon</title>
<polygon fill="none" stroke="black" points="489,-180 271,-180 271,-144 489,-144 489,-180"/>
<text text-anchor="middle" x="380" y="-158.3" font-family="Times,serif" font-size="14.00">aws_vpc.vpc_master_oregon</text>
</g>
<!-- [root] aws_internet_gateway.igw&#45;oregon&#45;&gt;[root] aws_vpc.vpc_master_oregon -->
<g id="edge16" class="edge">
<title>[root] aws_internet_gateway.igw&#45;oregon&#45;&gt;[root] aws_vpc.vpc_master_oregon</title>
<path fill="none" stroke="black" d="M458.56,-215.88C445.21,-206.89 428.68,-195.76 414.22,-186.03"/>
<polygon fill="black" stroke="black" points="415.79,-182.87 405.54,-180.19 411.88,-188.68 415.79,-182.87"/>
</g>
<!-- [root] provider.aws.region&#45;master -->
<g id="node26" class="node">
<title>[root] provider.aws.region&#45;master</title>
<polygon fill="none" stroke="black" points="1561,-108 1365.44,-90 1561,-72 1756.56,-90 1561,-108"/>
<text text-anchor="middle" x="1561" y="-86.3" font-family="Times,serif" font-size="14.00">provider.aws.region&#45;master</text>
</g>
<!-- [root] aws_key_pair.master&#45;key&#45;&gt;[root] provider.aws.region&#45;master -->
<g id="edge17" class="edge">
<title>[root] aws_key_pair.master&#45;key&#45;&gt;[root] provider.aws.region&#45;master</title>
<path fill="none" stroke="black" d="M2249.98,-215.75C2221.84,-194.77 2170.79,-160.14 2121,-144 2044.81,-119.3 1836.37,-104.5 1696.42,-97.04"/>
<polygon fill="black" stroke="black" points="1696.22,-93.53 1686.05,-96.5 1695.85,-100.52 1696.22,-93.53"/>
</g>
<!-- [root] provider.aws.region&#45;worker -->
<g id="node27" class="node">
<title>[root] provider.aws.region&#45;worker</title>
<polygon fill="none" stroke="black" points="523,-108 327.44,-90 523,-72 718.56,-90 523,-108"/>
<text text-anchor="middle" x="523" y="-86.3" font-family="Times,serif" font-size="14.00">provider.aws.region&#45;worker</text>
</g>
<!-- [root] aws_key_pair.worker&#45;key&#45;&gt;[root] provider.aws.region&#45;worker -->
<g id="edge18" class="edge">
<title>[root] aws_key_pair.worker&#45;key&#45;&gt;[root] provider.aws.region&#45;worker</title>
<path fill="none" stroke="black" d="M194.2,-145.03C270.62,-132.47 375.61,-115.22 446.21,-103.62"/>
<polygon fill="black" stroke="black" points="447.07,-107.02 456.37,-101.95 445.93,-100.12 447.07,-107.02"/>
</g>
<!-- [root] aws_route_table.internet&#45;route -->
<g id="node9" class="node">
<title>[root] aws_route_table.internet&#45;route</title>
<polygon fill="none" stroke="black" points="1444.5,-324 1207.5,-324 1207.5,-288 1444.5,-288 1444.5,-324"/>
<text text-anchor="middle" x="1326" y="-302.3" font-family="Times,serif" font-size="14.00">aws_route_table.internet&#45;route</text>
</g>
<!-- [root] aws_main_route_table_association.set&#45;master&#45;default&#45;rt&#45;assoc&#45;&gt;[root] aws_route_table.internet&#45;route -->
<g id="edge19" class="edge">
<title>[root] aws_main_route_table_association.set&#45;master&#45;default&#45;rt&#45;assoc&#45;&gt;[root] aws_route_table.internet&#45;route</title>
<path fill="none" stroke="black" d="M1390.74,-359.7C1379.91,-350.88 1366.58,-340.03 1354.84,-330.47"/>
<polygon fill="black" stroke="black" points="1356.98,-327.7 1347.01,-324.1 1352.56,-333.13 1356.98,-327.7"/>
</g>
<!-- [root] aws_route_table.internet&#45;route&#45;oregon -->
<g id="node10" class="node">
<title>[root] aws_route_table.internet&#45;route&#45;oregon</title>
<polygon fill="none" stroke="black" points="637.5,-324 346.5,-324 346.5,-288 637.5,-288 637.5,-324"/>
<text text-anchor="middle" x="492" y="-302.3" font-family="Times,serif" font-size="14.00">aws_route_table.internet&#45;route&#45;oregon</text>
</g>
<!-- [root] aws_main_route_table_association.set&#45;worker&#45;default&#45;rt&#45;assoc&#45;&gt;[root] aws_route_table.internet&#45;route&#45;oregon -->
<g id="edge20" class="edge">
<title>[root] aws_main_route_table_association.set&#45;worker&#45;default&#45;rt&#45;assoc&#45;&gt;[root] aws_route_table.internet&#45;route&#45;oregon</title>
<path fill="none" stroke="black" d="M436.31,-431.82C449.05,-422.7 463.18,-410.39 472,-396 483.42,-377.38 488.34,-352.99 490.45,-334.45"/>
<polygon fill="black" stroke="black" points="493.95,-334.58 491.39,-324.3 486.98,-333.93 493.95,-334.58"/>
</g>
<!-- [root] aws_route_table.internet&#45;route&#45;&gt;[root] aws_internet_gateway.igw -->
<g id="edge21" class="edge">
<title>[root] aws_route_table.internet&#45;route&#45;&gt;[root] aws_internet_gateway.igw</title>
<path fill="none" stroke="black" d="M1339.1,-287.7C1345.39,-279.39 1353.05,-269.28 1359.96,-260.14"/>
<polygon fill="black" stroke="black" points="1362.8,-262.19 1366.05,-252.1 1357.22,-257.96 1362.8,-262.19"/>
</g>
<!-- [root] aws_vpc_peering_connection.useast1&#45;uswest2 -->
<g id="node19" class="node">
<title>[root] aws_vpc_peering_connection.useast1&#45;uswest2</title>
<polygon fill="none" stroke="black" points="1037.5,-252 692.5,-252 692.5,-216 1037.5,-216 1037.5,-252"/>
<text text-anchor="middle" x="865" y="-230.3" font-family="Times,serif" font-size="14.00">aws_vpc_peering_connection.useast1&#45;uswest2</text>
</g>
<!-- [root] aws_route_table.internet&#45;route&#45;&gt;[root] aws_vpc_peering_connection.useast1&#45;uswest2 -->
<g id="edge22" class="edge">
<title>[root] aws_route_table.internet&#45;route&#45;&gt;[root] aws_vpc_peering_connection.useast1&#45;uswest2</title>
<path fill="none" stroke="black" d="M1213.82,-287.97C1145.36,-277.57 1057.79,-264.27 987.52,-253.6"/>
<polygon fill="black" stroke="black" points="987.7,-250.09 977.29,-252.05 986.65,-257.01 987.7,-250.09"/>
</g>
<!-- [root] aws_route_table.internet&#45;route&#45;oregon&#45;&gt;[root] aws_internet_gateway.igw&#45;oregon -->
<g id="edge23" class="edge">
<title>[root] aws_route_table.internet&#45;route&#45;oregon&#45;&gt;[root] aws_internet_gateway.igw&#45;oregon</title>
<path fill="none" stroke="black" d="M490.02,-287.7C489.14,-279.98 488.08,-270.71 487.1,-262.11"/>
<polygon fill="black" stroke="black" points="490.57,-261.64 485.95,-252.1 483.61,-262.44 490.57,-261.64"/>
</g>
<!-- [root] aws_route_table.internet&#45;route&#45;oregon&#45;&gt;[root] aws_vpc_peering_connection.useast1&#45;uswest2 -->
<g id="edge24" class="edge">
<title>[root] aws_route_table.internet&#45;route&#45;oregon&#45;&gt;[root] aws_vpc_peering_connection.useast1&#45;uswest2</title>
<path fill="none" stroke="black" d="M582.77,-287.97C637.59,-277.68 707.56,-264.55 764.11,-253.93"/>
<polygon fill="black" stroke="black" points="764.96,-257.33 774.15,-252.05 763.67,-250.45 764.96,-257.33"/>
</g>
<!-- [root] aws_security_group.lb&#45;sg -->
<g id="node13" class="node">
<title>[root] aws_security_group.lb&#45;sg</title>
<polygon fill="none" stroke="black" points="1659.5,-324 1462.5,-324 1462.5,-288 1659.5,-288 1659.5,-324"/>
<text text-anchor="middle" x="1561" y="-302.3" font-family="Times,serif" font-size="14.00">aws_security_group.lb&#45;sg</text>
</g>
<!-- [root] aws_security_group.jenkins&#45;sg&#45;&gt;[root] aws_security_group.lb&#45;sg -->
<g id="edge25" class="edge">
<title>[root] aws_security_group.jenkins&#45;sg&#45;&gt;[root] aws_security_group.lb&#45;sg</title>
<path fill="none" stroke="black" d="M1165.29,-361.28C1168.56,-360.85 1171.8,-360.42 1175,-360 1295.69,-344.14 1328.53,-341.92 1452.23,-324.23"/>
<polygon fill="black" stroke="black" points="1453.08,-327.65 1462.48,-322.76 1452.09,-320.72 1453.08,-327.65"/>
</g>
<!-- [root] var.external&#45;ip -->
<g id="node28" class="node">
<title>[root] var.external&#45;ip</title>
<polygon fill="none" stroke="black" points="1087,-324 973,-324 973,-288 1093,-288 1093,-318 1087,-324"/>
<polyline fill="none" stroke="black" points="1087,-324 1087,-318 "/>
<polyline fill="none" stroke="black" points="1093,-318 1087,-318 "/>
<text text-anchor="middle" x="1033" y="-302.3" font-family="Times,serif" font-size="14.00">var.external&#45;ip</text>
</g>
<!-- [root] aws_security_group.jenkins&#45;sg&#45;&gt;[root] var.external&#45;ip -->
<g id="edge26" class="edge">
<title>[root] aws_security_group.jenkins&#45;sg&#45;&gt;[root] var.external&#45;ip</title>
<path fill="none" stroke="black" d="M1044.29,-359.7C1042.64,-351.98 1040.65,-342.71 1038.81,-334.11"/>
<polygon fill="black" stroke="black" points="1042.18,-333.15 1036.67,-324.1 1035.34,-334.62 1042.18,-333.15"/>
</g>
<!-- [root] aws_security_group.jenkins&#45;sg&#45;oregon&#45;&gt;[root] aws_vpc.vpc_master_oregon -->
<g id="edge27" class="edge">
<title>[root] aws_security_group.jenkins&#45;sg&#45;oregon&#45;&gt;[root] aws_vpc.vpc_master_oregon</title>
<path fill="none" stroke="black" d="M319.62,-359.96C321.19,-329.91 326.72,-265.97 346,-216 349.68,-206.46 355.21,-196.82 360.74,-188.42"/>
<polygon fill="black" stroke="black" points="363.63,-190.4 366.44,-180.18 357.87,-186.42 363.63,-190.4"/>
</g>
<!-- [root] aws_security_group.jenkins&#45;sg&#45;oregon&#45;&gt;[root] var.external&#45;ip -->
<g id="edge28" class="edge">
<title>[root] aws_security_group.jenkins&#45;sg&#45;oregon&#45;&gt;[root] var.external&#45;ip</title>
<path fill="none" stroke="black" d="M463.06,-362.88C614.7,-348.01 847.13,-325.22 962.7,-313.89"/>
<polygon fill="black" stroke="black" points="963.23,-317.36 972.84,-312.9 962.55,-310.39 963.23,-317.36"/>
</g>
<!-- [root] aws_security_group.lb&#45;sg&#45;&gt;[root] aws_vpc.vpc_master -->
<g id="edge29" class="edge">
<title>[root] aws_security_group.lb&#45;sg&#45;&gt;[root] aws_vpc.vpc_master</title>
<path fill="none" stroke="black" d="M1561,-287.87C1561,-263.67 1561,-219.21 1561,-190.39"/>
<polygon fill="black" stroke="black" points="1564.5,-190.19 1561,-180.19 1557.5,-190.19 1564.5,-190.19"/>
</g>
<!-- [root] aws_subnet.subnet_1&#45;&gt;[root] aws_vpc.vpc_master -->
<g id="edge30" class="edge">
<title>[root] aws_subnet.subnet_1&#45;&gt;[root] aws_vpc.vpc_master</title>
<path fill="none" stroke="black" d="M1728.91,-359.86C1714.09,-341.88 1690.05,-312.83 1669,-288 1639.38,-253.06 1604.68,-213.06 1582.77,-187.92"/>
<polygon fill="black" stroke="black" points="1585.34,-185.54 1576.13,-180.3 1580.06,-190.14 1585.34,-185.54"/>
</g>
<!-- [root] data.aws_availability_zones.azs -->
<g id="node21" class="node">
<title>[root] data.aws_availability_zones.azs</title>
<polygon fill="none" stroke="black" points="2283.5,-324 2042.5,-324 2042.5,-288 2283.5,-288 2283.5,-324"/>
<text text-anchor="middle" x="2163" y="-302.3" font-family="Times,serif" font-size="14.00">data.aws_availability_zones.azs</text>
</g>
<!-- [root] aws_subnet.subnet_1&#45;&gt;[root] data.aws_availability_zones.azs -->
<g id="edge31" class="edge">
<title>[root] aws_subnet.subnet_1&#45;&gt;[root] data.aws_availability_zones.azs</title>
<path fill="none" stroke="black" d="M1827.54,-361.64C1830.73,-361.08 1833.89,-360.53 1837,-360 1905.92,-348.17 1983.17,-335.58 2045.16,-325.64"/>
<polygon fill="black" stroke="black" points="2046.04,-329.04 2055.37,-324.01 2044.94,-322.13 2046.04,-329.04"/>
</g>
<!-- [root] aws_subnet.subnet_1_oregon&#45;&gt;[root] aws_vpc.vpc_master_oregon -->
<g id="edge32" class="edge">
<title>[root] aws_subnet.subnet_1_oregon&#45;&gt;[root] aws_vpc.vpc_master_oregon</title>
<path fill="none" stroke="black" d="M227.16,-215.97C255.5,-206.14 291.32,-193.73 321.16,-183.39"/>
<polygon fill="black" stroke="black" points="322.32,-186.69 330.62,-180.11 320.03,-180.08 322.32,-186.69"/>
</g>
<!-- [root] aws_subnet.subnet_2 -->
<g id="node16" class="node">
<title>[root] aws_subnet.subnet_2</title>
<polygon fill="none" stroke="black" points="2253.5,-468 2084.5,-468 2084.5,-432 2253.5,-432 2253.5,-468"/>
<text text-anchor="middle" x="2169" y="-446.3" font-family="Times,serif" font-size="14.00">aws_subnet.subnet_2</text>
</g>
<!-- [root] aws_subnet.subnet_2&#45;&gt;[root] aws_vpc.vpc_master -->
<g id="edge33" class="edge">
<title>[root] aws_subnet.subnet_2&#45;&gt;[root] aws_vpc.vpc_master</title>
<path fill="none" stroke="black" d="M2246.39,-431.88C2264.68,-424.03 2282.04,-412.61 2293,-396 2301.81,-382.65 2303.51,-372.07 2293,-360 2254.84,-316.17 2090.54,-337.42 2034,-324 1876.55,-286.62 1697.38,-218.22 1611.77,-183.86"/>
<polygon fill="black" stroke="black" points="1612.88,-180.53 1602.3,-180.04 1610.26,-187.03 1612.88,-180.53"/>
</g>
<!-- [root] aws_subnet.subnet_2&#45;&gt;[root] data.aws_availability_zones.azs -->
<g id="edge34" class="edge">
<title>[root] aws_subnet.subnet_2&#45;&gt;[root] data.aws_availability_zones.azs</title>
<path fill="none" stroke="black" d="M2253.53,-439.55C2321.05,-428.46 2399.03,-405.47 2364,-360 2353.05,-345.79 2320.3,-334.63 2284.33,-326.28"/>
<polygon fill="black" stroke="black" points="2284.64,-322.77 2274.11,-324 2283.11,-329.6 2284.64,-322.77"/>
</g>
<!-- [root] aws_vpc.vpc_master&#45;&gt;[root] provider.aws.region&#45;master -->
<g id="edge35" class="edge">
<title>[root] aws_vpc.vpc_master&#45;&gt;[root] provider.aws.region&#45;master</title>
<path fill="none" stroke="black" d="M1561,-143.7C1561,-135.98 1561,-126.71 1561,-118.11"/>
<polygon fill="black" stroke="black" points="1564.5,-118.1 1561,-108.1 1557.5,-118.1 1564.5,-118.1"/>
</g>
<!-- [root] aws_vpc.vpc_master_oregon&#45;&gt;[root] provider.aws.region&#45;worker -->
<g id="edge36" class="edge">
<title>[root] aws_vpc.vpc_master_oregon&#45;&gt;[root] provider.aws.region&#45;worker</title>
<path fill="none" stroke="black" d="M414.98,-143.88C436.01,-133.58 462.81,-120.46 484.45,-109.87"/>
<polygon fill="black" stroke="black" points="486.24,-112.89 493.68,-105.35 483.16,-106.6 486.24,-112.89"/>
</g>
<!-- [root] aws_vpc_peering_connection.useast1&#45;uswest2&#45;&gt;[root] aws_vpc.vpc_master -->
<g id="edge37" class="edge">
<title>[root] aws_vpc_peering_connection.useast1&#45;uswest2&#45;&gt;[root] aws_vpc.vpc_master</title>
<path fill="none" stroke="black" d="M1034.37,-215.97C1171.53,-202.17 1359.47,-183.27 1469.79,-172.17"/>
<polygon fill="black" stroke="black" points="1470.29,-175.64 1479.89,-171.16 1469.59,-168.68 1470.29,-175.64"/>
</g>
<!-- [root] aws_vpc_peering_connection.useast1&#45;uswest2&#45;&gt;[root] aws_vpc.vpc_master_oregon -->
<g id="edge38" class="edge">
<title>[root] aws_vpc_peering_connection.useast1&#45;uswest2&#45;&gt;[root] aws_vpc.vpc_master_oregon</title>
<path fill="none" stroke="black" d="M746.98,-215.97C671.84,-205.12 574.83,-191.12 499.42,-180.24"/>
<polygon fill="black" stroke="black" points="499.8,-176.75 489.4,-178.79 498.8,-183.68 499.8,-176.75"/>
</g>
<!-- [root] aws_vpc_peering_connection_accepter.accept&#45;peering -->
<g id="node20" class="node">
<title>[root] aws_vpc_peering_connection_accepter.accept&#45;peering</title>
<polygon fill="none" stroke="black" points="1197,-612 799,-612 799,-576 1197,-576 1197,-612"/>
<text text-anchor="middle" x="998" y="-590.3" font-family="Times,serif" font-size="14.00">aws_vpc_peering_connection_accepter.accept&#45;peering</text>
</g>
<!-- [root] aws_vpc_peering_connection_accepter.accept&#45;peering&#45;&gt;[root] aws_vpc_peering_connection.useast1&#45;uswest2 -->
<g id="edge39" class="edge">
<title>[root] aws_vpc_peering_connection_accepter.accept&#45;peering&#45;&gt;[root] aws_vpc_peering_connection.useast1&#45;uswest2</title>
<path fill="none" stroke="black" d="M989.21,-575.99C972.06,-542.31 933.66,-464.5 909,-396 892.42,-349.95 878.57,-294.58 871.06,-262.23"/>
<polygon fill="black" stroke="black" points="874.4,-261.16 868.76,-252.19 867.58,-262.72 874.4,-261.16"/>
</g>
<!-- [root] data.aws_availability_zones.azs&#45;&gt;[root] provider.aws.region&#45;master -->
<g id="edge40" class="edge">
<title>[root] data.aws_availability_zones.azs&#45;&gt;[root] provider.aws.region&#45;master</title>
<path fill="none" stroke="black" d="M2141.82,-287.89C2116.25,-268 2071.28,-235.44 2028,-216 1897.07,-157.18 1732.66,-121.17 1637.93,-103.73"/>
<polygon fill="black" stroke="black" points="1638.33,-100.25 1627.86,-101.9 1637.07,-107.14 1638.33,-100.25"/>
</g>
<!-- [root] data.aws_ssm_parameter.linuxAmi&#45;&gt;[root] provider.aws.region&#45;master -->
<g id="edge41" class="edge">
<title>[root] data.aws_ssm_parameter.linuxAmi&#45;&gt;[root] provider.aws.region&#45;master</title>
<path fill="none" stroke="black" d="M1285.58,-143.97C1348.84,-131.8 1432.76,-115.66 1491.27,-104.41"/>
<polygon fill="black" stroke="black" points="1492,-107.83 1501.16,-102.51 1490.68,-100.96 1492,-107.83"/>
</g>
<!-- [root] data.aws_ssm_parameter.linuxAmiOregon&#45;&gt;[root] provider.aws.region&#45;worker -->
<g id="edge42" class="edge">
<title>[root] data.aws_ssm_parameter.linuxAmiOregon&#45;&gt;[root] provider.aws.region&#45;worker</title>
<path fill="none" stroke="black" d="M630.26,-143.88C609.38,-133.58 582.77,-120.46 561.28,-109.87"/>
<polygon fill="black" stroke="black" points="562.63,-106.63 552.11,-105.35 559.54,-112.91 562.63,-106.63"/>
</g>
<!-- [root] output.Jenkins&#45;Main&#45;Node&#45;Public&#45;ip -->
<g id="node24" class="node">
<title>[root] output.Jenkins&#45;Main&#45;Node&#45;Public&#45;ip</title>
<polygon fill="none" stroke="black" points="1433.5,-540 1170.5,-540 1170.5,-504 1439.5,-504 1439.5,-534 1433.5,-540"/>
<polyline fill="none" stroke="black" points="1433.5,-540 1433.5,-534 "/>
<polyline fill="none" stroke="black" points="1439.5,-534 1433.5,-534 "/>
<text text-anchor="middle" x="1305" y="-518.3" font-family="Times,serif" font-size="14.00">output.Jenkins&#45;Main&#45;Node&#45;Public&#45;ip</text>
</g>
<!-- [root] output.Jenkins&#45;Main&#45;Node&#45;Public&#45;ip&#45;&gt;[root] aws_instance.jenkins&#45;master -->
<g id="edge47" class="edge">
<title>[root] output.Jenkins&#45;Main&#45;Node&#45;Public&#45;ip&#45;&gt;[root] aws_instance.jenkins&#45;master</title>
<path fill="none" stroke="black" d="M1360.97,-503.97C1393.53,-494.06 1434.74,-481.51 1468.89,-471.12"/>
<polygon fill="black" stroke="black" points="1470.23,-474.37 1478.78,-468.11 1468.19,-467.67 1470.23,-474.37"/>
</g>
<!-- [root] output.Jenkins&#45;worker&#45;Public&#45;ip -->
<g id="node25" class="node">
<title>[root] output.Jenkins&#45;worker&#45;Public&#45;ip</title>
<polygon fill="none" stroke="black" points="775,-612 539,-612 539,-576 781,-576 781,-606 775,-612"/>
<polyline fill="none" stroke="black" points="775,-612 775,-606 "/>
<polyline fill="none" stroke="black" points="781,-606 775,-606 "/>
<text text-anchor="middle" x="660" y="-590.3" font-family="Times,serif" font-size="14.00">output.Jenkins&#45;worker&#45;Public&#45;ip</text>
</g>
<!-- [root] output.Jenkins&#45;worker&#45;Public&#45;ip&#45;&gt;[root] aws_instance.jenkins&#45;worker&#45;oregon -->
<g id="edge48" class="edge">
<title>[root] output.Jenkins&#45;worker&#45;Public&#45;ip&#45;&gt;[root] aws_instance.jenkins&#45;worker&#45;oregon</title>
<path fill="none" stroke="black" d="M618.9,-575.88C595.83,-566.26 566.86,-554.19 542.43,-544.01"/>
<polygon fill="black" stroke="black" points="543.54,-540.68 532.96,-540.07 540.85,-547.15 543.54,-540.68"/>
</g>
<!-- [root] var.profile -->
<g id="node30" class="node">
<title>[root] var.profile</title>
<polygon fill="none" stroke="black" points="940.5,-36 857.5,-36 857.5,0 946.5,0 946.5,-30 940.5,-36"/>
<polyline fill="none" stroke="black" points="940.5,-36 940.5,-30 "/>
<polyline fill="none" stroke="black" points="946.5,-30 940.5,-30 "/>
<text text-anchor="middle" x="902" y="-14.3" font-family="Times,serif" font-size="14.00">var.profile</text>
</g>
<!-- [root] provider.aws.region&#45;master&#45;&gt;[root] var.profile -->
<g id="edge51" class="edge">
<title>[root] provider.aws.region&#45;master&#45;&gt;[root] var.profile</title>
<path fill="none" stroke="black" d="M1475.19,-79.88C1337.47,-65.26 1071,-36.95 956.48,-24.79"/>
<polygon fill="black" stroke="black" points="956.85,-21.31 946.53,-23.73 956.11,-28.27 956.85,-21.31"/>
</g>
<!-- [root] var.region&#45;master -->
<g id="node31" class="node">
<title>[root] var.region&#45;master</title>
<polygon fill="none" stroke="black" points="1626.5,-36 1489.5,-36 1489.5,0 1632.5,0 1632.5,-30 1626.5,-36"/>
<polyline fill="none" stroke="black" points="1626.5,-36 1626.5,-30 "/>
<polyline fill="none" stroke="black" points="1632.5,-30 1626.5,-30 "/>
<text text-anchor="middle" x="1561" y="-14.3" font-family="Times,serif" font-size="14.00">var.region&#45;master</text>
</g>
<!-- [root] provider.aws.region&#45;master&#45;&gt;[root] var.region&#45;master -->
<g id="edge52" class="edge">
<title>[root] provider.aws.region&#45;master&#45;&gt;[root] var.region&#45;master</title>
<path fill="none" stroke="black" d="M1561,-71.7C1561,-63.98 1561,-54.71 1561,-46.11"/>
<polygon fill="black" stroke="black" points="1564.5,-46.1 1561,-36.1 1557.5,-46.1 1564.5,-46.1"/>
</g>
<!-- [root] provider.aws.region&#45;worker&#45;&gt;[root] var.profile -->
<g id="edge55" class="edge">
<title>[root] provider.aws.region&#45;worker&#45;&gt;[root] var.profile</title>
<path fill="none" stroke="black" d="M584.74,-77.6C657.71,-64.12 777.99,-41.9 847.6,-29.05"/>
<polygon fill="black" stroke="black" points="848.29,-32.48 857.49,-27.22 847.02,-25.59 848.29,-32.48"/>
</g>
<!-- [root] var.region&#45;worker -->
<g id="node32" class="node">
<title>[root] var.region&#45;worker</title>
<polygon fill="none" stroke="black" points="588.5,-36 451.5,-36 451.5,0 594.5,0 594.5,-30 588.5,-36"/>
<polyline fill="none" stroke="black" points="588.5,-36 588.5,-30 "/>
<polyline fill="none" stroke="black" points="594.5,-30 588.5,-30 "/>
<text text-anchor="middle" x="523" y="-14.3" font-family="Times,serif" font-size="14.00">var.region&#45;worker</text>
</g>
<!-- [root] provider.aws.region&#45;worker&#45;&gt;[root] var.region&#45;worker -->
<g id="edge56" class="edge">
<title>[root] provider.aws.region&#45;worker&#45;&gt;[root] var.region&#45;worker</title>
<path fill="none" stroke="black" d="M523,-71.7C523,-63.98 523,-54.71 523,-46.11"/>
<polygon fill="black" stroke="black" points="526.5,-46.1 523,-36.1 519.5,-46.1 526.5,-46.1"/>
</g>
<!-- [root] meta.count&#45;boundary (EachMode fixup) -->
<g id="node35" class="node">
<title>[root] meta.count&#45;boundary (EachMode fixup)</title>
<ellipse fill="none" stroke="black" cx="1305" cy="-666" rx="222.86" ry="18"/>
<text text-anchor="middle" x="1305" y="-662.3" font-family="Times,serif" font-size="14.00">[root] meta.count&#45;boundary (EachMode fixup)</text>
</g>
<!-- [root] meta.count&#45;boundary (EachMode fixup)&#45;&gt;[root] aws_subnet.subnet_2 -->
<g id="edge43" class="edge">
<title>[root] meta.count&#45;boundary (EachMode fixup)&#45;&gt;[root] aws_subnet.subnet_2</title>
<path fill="none" stroke="black" d="M1384.51,-649.08C1493.76,-626.82 1696.19,-584.11 1867,-540 1949.97,-518.57 2044.58,-490.01 2105.45,-471.09"/>
<polygon fill="black" stroke="black" points="2106.79,-474.34 2115.3,-468.02 2104.71,-467.66 2106.79,-474.34"/>
</g>
<!-- [root] meta.count&#45;boundary (EachMode fixup)&#45;&gt;[root] aws_vpc_peering_connection_accepter.accept&#45;peering -->
<g id="edge44" class="edge">
<title>[root] meta.count&#45;boundary (EachMode fixup)&#45;&gt;[root] aws_vpc_peering_connection_accepter.accept&#45;peering</title>
<path fill="none" stroke="black" d="M1234.18,-648.85C1189.05,-638.56 1130.33,-625.17 1082.72,-614.32"/>
<polygon fill="black" stroke="black" points="1083.27,-610.85 1072.74,-612.04 1081.72,-617.68 1083.27,-610.85"/>
</g>
<!-- [root] meta.count&#45;boundary (EachMode fixup)&#45;&gt;[root] output.Jenkins&#45;Main&#45;Node&#45;Public&#45;ip -->
<g id="edge45" class="edge">
<title>[root] meta.count&#45;boundary (EachMode fixup)&#45;&gt;[root] output.Jenkins&#45;Main&#45;Node&#45;Public&#45;ip</title>
<path fill="none" stroke="black" d="M1305,-647.87C1305,-623.67 1305,-579.21 1305,-550.39"/>
<polygon fill="black" stroke="black" points="1308.5,-550.19 1305,-540.19 1301.5,-550.19 1308.5,-550.19"/>
</g>
<!-- [root] meta.count&#45;boundary (EachMode fixup)&#45;&gt;[root] output.Jenkins&#45;worker&#45;Public&#45;ip -->
<g id="edge46" class="edge">
<title>[root] meta.count&#45;boundary (EachMode fixup)&#45;&gt;[root] output.Jenkins&#45;worker&#45;Public&#45;ip</title>
<path fill="none" stroke="black" d="M1166.91,-651.83C1065.67,-641.93 924.64,-627.62 791.09,-612.11"/>
<polygon fill="black" stroke="black" points="791.42,-608.63 781.08,-610.94 790.61,-615.58 791.42,-608.63"/>
</g>
<!-- [root] provider.aws.region&#45;master (close) -->
<g id="node36" class="node">
<title>[root] provider.aws.region&#45;master (close)</title>
<ellipse fill="none" stroke="black" cx="1658" cy="-522" rx="200.36" ry="18"/>
<text text-anchor="middle" x="1658" y="-518.3" font-family="Times,serif" font-size="14.00">[root] provider.aws.region&#45;master (close)</text>
</g>
<!-- [root] provider.aws.region&#45;master (close)&#45;&gt;[root] aws_instance.jenkins&#45;master -->
<g id="edge49" class="edge">
<title>[root] provider.aws.region&#45;master (close)&#45;&gt;[root] aws_instance.jenkins&#45;master</title>
<path fill="none" stroke="black" d="M1628.23,-504.05C1611.88,-494.75 1591.41,-483.11 1573.83,-473.1"/>
<polygon fill="black" stroke="black" points="1575.35,-469.94 1564.93,-468.03 1571.89,-476.02 1575.35,-469.94"/>
</g>
<!-- [root] provider.aws.region&#45;master (close)&#45;&gt;[root] aws_subnet.subnet_2 -->
<g id="edge50" class="edge">
<title>[root] provider.aws.region&#45;master (close)&#45;&gt;[root] aws_subnet.subnet_2</title>
<path fill="none" stroke="black" d="M1762.95,-506.62C1854.49,-494.08 1986.12,-476.05 2074.45,-463.95"/>
<polygon fill="black" stroke="black" points="2075.03,-467.41 2084.46,-462.58 2074.08,-460.47 2075.03,-467.41"/>
</g>
<!-- [root] provider.aws.region&#45;worker (close) -->
<g id="node37" class="node">
<title>[root] provider.aws.region&#45;worker (close)</title>
<ellipse fill="none" stroke="black" cx="864" cy="-666" rx="200.36" ry="18"/>
<text text-anchor="middle" x="864" y="-662.3" font-family="Times,serif" font-size="14.00">[root] provider.aws.region&#45;worker (close)</text>
</g>
<!-- [root] provider.aws.region&#45;worker (close)&#45;&gt;[root] aws_instance.jenkins&#45;worker&#45;oregon -->
<g id="edge53" class="edge">
<title>[root] provider.aws.region&#45;worker (close)&#45;&gt;[root] aws_instance.jenkins&#45;worker&#45;oregon</title>
<path fill="none" stroke="black" d="M743.16,-651.57C654.62,-640.77 547.01,-625.27 530,-612 510.71,-596.96 501.07,-570.23 496.34,-549.98"/>
<polygon fill="black" stroke="black" points="499.75,-549.16 494.29,-540.08 492.89,-550.58 499.75,-549.16"/>
</g>
<!-- [root] provider.aws.region&#45;worker (close)&#45;&gt;[root] aws_vpc_peering_connection_accepter.accept&#45;peering -->
<g id="edge54" class="edge">
<title>[root] provider.aws.region&#45;worker (close)&#45;&gt;[root] aws_vpc_peering_connection_accepter.accept&#45;peering</title>
<path fill="none" stroke="black" d="M896.44,-648.05C914.49,-638.62 937.16,-626.78 956.49,-616.68"/>
<polygon fill="black" stroke="black" points="958.15,-619.76 965.4,-612.03 954.91,-613.56 958.15,-619.76"/>
</g>
<!-- [root] provisioner.local&#45;exec (close) -->
<g id="node38" class="node">
<title>[root] provisioner.local&#45;exec (close)</title>
<ellipse fill="none" stroke="black" cx="473" cy="-666" rx="172.77" ry="18"/>
<text text-anchor="middle" x="473" y="-662.3" font-family="Times,serif" font-size="14.00">[root] provisioner.local&#45;exec (close)</text>
</g>
<!-- [root] provisioner.local&#45;exec (close)&#45;&gt;[root] aws_instance.jenkins&#45;worker&#45;oregon -->
<g id="edge57" class="edge">
<title>[root] provisioner.local&#45;exec (close)&#45;&gt;[root] aws_instance.jenkins&#45;worker&#45;oregon</title>
<path fill="none" stroke="black" d="M475.29,-647.87C478.53,-623.67 484.48,-579.21 488.33,-550.39"/>
<polygon fill="black" stroke="black" points="491.84,-550.57 489.7,-540.19 484.9,-549.64 491.84,-550.57"/>
</g>
<!-- [root] root -->
<g id="node39" class="node">
<title>[root] root</title>
<ellipse fill="none" stroke="black" cx="1084" cy="-738" rx="58.49" ry="18"/>
<text text-anchor="middle" x="1084" y="-734.3" font-family="Times,serif" font-size="14.00">[root] root</text>
</g>
<!-- [root] root&#45;&gt;[root] meta.count&#45;boundary (EachMode fixup) -->
<g id="edge58" class="edge">
<title>[root] root&#45;&gt;[root] meta.count&#45;boundary (EachMode fixup)</title>
<path fill="none" stroke="black" d="M1123.26,-724.57C1156.53,-714.03 1204.83,-698.73 1243.28,-686.55"/>
<polygon fill="black" stroke="black" points="1244.35,-689.88 1252.82,-683.53 1242.23,-683.21 1244.35,-689.88"/>
</g>
<!-- [root] root&#45;&gt;[root] provider.aws.region&#45;master (close) -->
<g id="edge59" class="edge">
<title>[root] root&#45;&gt;[root] provider.aws.region&#45;master (close)</title>
<path fill="none" stroke="black" d="M1142.42,-735.82C1249.23,-732.74 1471.09,-721.86 1537,-684 1591.41,-652.75 1629,-586.19 1646.61,-549.19"/>
<polygon fill="black" stroke="black" points="1649.83,-550.57 1650.85,-540.02 1643.48,-547.63 1649.83,-550.57"/>
</g>
<!-- [root] root&#45;&gt;[root] provider.aws.region&#45;worker (close) -->
<g id="edge60" class="edge">
<title>[root] root&#45;&gt;[root] provider.aws.region&#45;worker (close)</title>
<path fill="none" stroke="black" d="M1044.92,-724.57C1011.82,-714.04 963.79,-698.75 925.54,-686.58"/>
<polygon fill="black" stroke="black" points="926.13,-683.09 915.53,-683.4 924,-689.76 926.13,-683.09"/>
</g>
<!-- [root] root&#45;&gt;[root] provisioner.local&#45;exec (close) -->
<g id="edge61" class="edge">
<title>[root] root&#45;&gt;[root] provisioner.local&#45;exec (close)</title>
<path fill="none" stroke="black" d="M1030.31,-730.85C933.46,-719.75 727.28,-696.13 594.66,-680.94"/>
<polygon fill="black" stroke="black" points="594.79,-677.43 584.45,-679.77 593.99,-684.38 594.79,-677.43"/>
</g>
</g>
</svg>
